<mxfile host="app.diagrams.net" agent="Mozilla/5.0 (Macintosh; Intel Mac OS X 10_15_7) AppleWebKit/537.36 (KHTML, like Gecko) Chrome/127.0.0.0 Safari/537.36" version="24.7.7">
  <diagram name="第 1 页" id="A5mJ1HAbe-ij8wbm6J2E">
    <mxGraphModel dx="949" dy="746" grid="1" gridSize="10" guides="1" tooltips="1" connect="1" arrows="1" fold="1" page="1" pageScale="1" pageWidth="827" pageHeight="1169" math="0" shadow="0">
      <root>
        <mxCell id="0" />
        <mxCell id="1" parent="0" />
        <mxCell id="nOMgt-YmbDjjsyD8kq_g-2" value="" style="rounded=0;whiteSpace=wrap;html=1;fillColor=none;" vertex="1" parent="1">
          <mxGeometry x="100" y="110" width="640" height="620" as="geometry" />
        </mxCell>
        <mxCell id="nOMgt-YmbDjjsyD8kq_g-3" value="" style="endArrow=none;dashed=1;html=1;rounded=0;exitX=0.094;exitY=0.806;exitDx=0;exitDy=0;exitPerimeter=0;entryX=0.828;entryY=0.79;entryDx=0;entryDy=0;entryPerimeter=0;" edge="1" parent="1" source="nOMgt-YmbDjjsyD8kq_g-2" target="nOMgt-YmbDjjsyD8kq_g-2">
          <mxGeometry width="50" height="50" relative="1" as="geometry">
            <mxPoint x="390" y="550" as="sourcePoint" />
            <mxPoint x="440" y="500" as="targetPoint" />
          </mxGeometry>
        </mxCell>
        <mxCell id="nOMgt-YmbDjjsyD8kq_g-4" value="" style="endArrow=none;dashed=1;html=1;rounded=0;exitX=0.094;exitY=0.806;exitDx=0;exitDy=0;exitPerimeter=0;entryX=0.828;entryY=0.79;entryDx=0;entryDy=0;entryPerimeter=0;" edge="1" parent="1">
          <mxGeometry width="50" height="50" relative="1" as="geometry">
            <mxPoint x="170" y="390" as="sourcePoint" />
            <mxPoint x="640" y="380" as="targetPoint" />
          </mxGeometry>
        </mxCell>
        <mxCell id="nOMgt-YmbDjjsyD8kq_g-5" value="" style="endArrow=none;dashed=1;html=1;rounded=0;exitX=0.094;exitY=0.806;exitDx=0;exitDy=0;exitPerimeter=0;entryX=0.828;entryY=0.79;entryDx=0;entryDy=0;entryPerimeter=0;" edge="1" parent="1">
          <mxGeometry width="50" height="50" relative="1" as="geometry">
            <mxPoint x="179" y="180" as="sourcePoint" />
            <mxPoint x="649" y="170" as="targetPoint" />
          </mxGeometry>
        </mxCell>
        <mxCell id="nOMgt-YmbDjjsyD8kq_g-6" value="原生层" style="text;html=1;align=center;verticalAlign=middle;whiteSpace=wrap;rounded=0;" vertex="1" parent="1">
          <mxGeometry x="240" y="650" width="60" height="30" as="geometry" />
        </mxCell>
        <mxCell id="nOMgt-YmbDjjsyD8kq_g-7" value="flutter 中间层" style="text;html=1;align=center;verticalAlign=middle;whiteSpace=wrap;rounded=0;" vertex="1" parent="1">
          <mxGeometry x="190" y="460" width="60" height="30" as="geometry" />
        </mxCell>
        <mxCell id="nOMgt-YmbDjjsyD8kq_g-8" value="rn 业务层" style="text;html=1;align=center;verticalAlign=middle;whiteSpace=wrap;rounded=0;" vertex="1" parent="1">
          <mxGeometry x="180" y="240" width="60" height="30" as="geometry" />
        </mxCell>
        <mxCell id="nOMgt-YmbDjjsyD8kq_g-9" value="base层" style="rounded=1;whiteSpace=wrap;html=1;" vertex="1" parent="1">
          <mxGeometry x="330" y="440" width="120" height="60" as="geometry" />
        </mxCell>
        <mxCell id="nOMgt-YmbDjjsyD8kq_g-10" value="衍生层" style="rounded=1;whiteSpace=wrap;html=1;" vertex="1" parent="1">
          <mxGeometry x="550" y="440" width="120" height="60" as="geometry" />
        </mxCell>
        <mxCell id="nOMgt-YmbDjjsyD8kq_g-11" value="业务" style="rounded=1;whiteSpace=wrap;html=1;" vertex="1" parent="1">
          <mxGeometry x="294" y="220" width="120" height="60" as="geometry" />
        </mxCell>
        <mxCell id="nOMgt-YmbDjjsyD8kq_g-12" value="原子层" style="rounded=1;whiteSpace=wrap;html=1;" vertex="1" parent="1">
          <mxGeometry x="340" y="635" width="120" height="60" as="geometry" />
        </mxCell>
      </root>
    </mxGraphModel>
  </diagram>
</mxfile>
